<?xml version="1.0" encoding="iso-8859-1"?>
<!-- Generator: Adobe Illustrator 19.2.0, SVG Export Plug-In . SVG Version: 6.00 Build 0)  -->
<svg version="1.1" id="Layer_1" xmlns="http://www.w3.org/2000/svg" xmlns:xlink="http://www.w3.org/1999/xlink" x="0px" y="0px"
	 viewBox="0 0 173 36" style="enable-background:new 0 0 173 36;" xml:space="preserve">
<g>
	<path style="fill-rule:evenodd;clip-rule:evenodd;fill:#B02819;" d="M4.6,17.59c0.48-0.45,1.17-0.87,2.08-1.28
		c0.91-0.4,1.85-0.6,2.84-0.6c1.11,0,2.05,0.21,2.84,0.62c0.8,0.42,1.44,0.99,1.96,1.71c0.5,0.73,0.87,1.6,1.11,2.61
		c0.23,1.01,0.36,2.1,0.36,3.24c0,2.73-0.66,4.78-1.98,6.14c-1.31,1.37-3.14,2.04-5.46,2.04c-0.58,0-1.19-0.03-1.82-0.11
		c-0.64-0.08-1.29-0.2-1.93-0.37V17.59z M4.6,0L0,0.74v34.03c0.9,0.28,2.12,0.55,3.62,0.82C5.12,35.87,6.82,36,8.76,36
		c1.74,0,3.33-0.28,4.77-0.85c1.42-0.56,2.65-1.37,3.67-2.41c1-1.05,1.79-2.32,2.35-3.82c0.55-1.49,0.84-3.17,0.84-5.03
		c0-1.79-0.23-3.43-0.7-4.91c-0.47-1.47-1.14-2.75-2.01-3.81c-0.89-1.07-1.95-1.89-3.23-2.49c-1.27-0.59-2.71-0.9-4.33-0.9
		c-1.21,0-2.3,0.18-3.27,0.5c-0.99,0.33-1.73,0.66-2.25,0.96V0z"/>
	<path style="fill-rule:evenodd;clip-rule:evenodd;fill:#B02819;" d="M36.44,26.51c0,1.56,0.13,2.93,0.37,4.12
		c0.25,1.19,0.67,2.18,1.29,2.98c0.61,0.79,1.43,1.4,2.45,1.8S42.86,36,44.41,36c0.66,0,1.3-0.05,1.92-0.16
		c0.62-0.11,1.17-0.24,1.68-0.38c0.51-0.15,0.95-0.31,1.34-0.47c0.39-0.17,0.69-0.3,0.91-0.41l-0.62-3.82
		c-0.47,0.33-1.13,0.63-1.96,0.9c-0.85,0.28-1.76,0.41-2.75,0.41c-1.29,0-2.27-0.39-2.92-1.18c-0.64-0.8-0.96-2.36-0.96-4.69V11.78
		H29.21v3.93h7.23V26.51z M40.09,6.89c0.64-0.64,0.96-1.52,0.96-2.64c0-1.1-0.32-1.98-0.96-2.62c-0.64-0.65-1.41-0.98-2.33-0.98
		c-0.9,0-1.67,0.33-2.32,0.98c-0.65,0.64-0.97,1.52-0.97,2.62c0,1.12,0.32,2,0.97,2.64c0.65,0.65,1.42,0.96,2.32,0.96
		C38.68,7.85,39.45,7.54,40.09,6.89z"/>
	<path style="fill-rule:evenodd;clip-rule:evenodd;fill:#B02819;" d="M79.46,11.78H61.04v3.93h12.44
		c-0.82,0.94-11.72,15.8-12.44,17.14V36h18.42v-3.93H67.31c0.89-1.51,11.56-16.02,12.15-16.73V11.78z"/>
	<path style="fill-rule:evenodd;clip-rule:evenodd;fill:#B02819;" d="M97.49,26.51c0,1.56,0.12,2.93,0.37,4.12
		c0.24,1.19,0.66,2.18,1.28,2.98c0.62,0.79,1.43,1.4,2.46,1.8c1.01,0.4,2.3,0.59,3.85,0.59c0.66,0,1.31-0.05,1.92-0.16
		c0.62-0.11,1.17-0.24,1.69-0.38c0.5-0.15,0.94-0.31,1.33-0.47c0.39-0.17,0.69-0.3,0.91-0.41l-0.62-3.82
		c-0.47,0.33-1.13,0.63-1.96,0.9c-0.84,0.28-1.76,0.41-2.75,0.41c-1.29,0-2.27-0.39-2.91-1.18c-0.65-0.8-0.97-2.36-0.97-4.69V11.78
		H90.25v3.93h7.24V26.51z M101.13,6.89c0.64-0.64,0.96-1.52,0.96-2.64c0-1.1-0.32-1.98-0.96-2.62c-0.63-0.65-1.4-0.98-2.33-0.98
		c-0.89,0-1.66,0.33-2.31,0.98c-0.66,0.64-0.98,1.52-0.98,2.62c0,1.12,0.32,2,0.98,2.64c0.65,0.65,1.42,0.96,2.31,0.96
		C99.73,7.85,100.5,7.54,101.13,6.89z"/>
	<path style="fill-rule:evenodd;clip-rule:evenodd;fill:#B02819;" d="M121.74,29.2c0.63,1.51,1.55,2.77,2.72,3.76
		c1.17,1,2.57,1.76,4.19,2.27c1.63,0.51,3.42,0.77,5.37,0.77c1.46,0,2.83-0.1,4.08-0.31c1.25-0.2,2.5-0.55,3.72-1.04l-0.63-3.89
		c-1.21,0.56-2.32,0.91-3.34,1.08c-1.02,0.16-2.08,0.23-3.19,0.23c-1.38,0-2.64-0.15-3.79-0.48c-1.15-0.31-2.12-0.81-2.94-1.47
		c-0.81-0.66-1.43-1.49-1.89-2.51c-0.45-1.01-0.66-2.23-0.66-3.65c0-1.47,0.23-2.74,0.7-3.78c0.48-1.04,1.11-1.9,1.92-2.56
		c0.8-0.65,1.73-1.14,2.82-1.45c1.09-0.31,2.24-0.46,3.47-0.46c0.94,0,1.89,0.08,2.82,0.24c0.93,0.17,1.96,0.52,3.09,1.07l0.96-4.04
		c-1.31-0.45-2.54-0.77-3.69-0.94s-2.31-0.26-3.48-0.26c-1.83,0-3.54,0.25-5.14,0.73c-1.6,0.48-3,1.21-4.2,2.22
		c-1.22,1-2.16,2.26-2.85,3.78c-0.69,1.54-1.03,3.35-1.03,5.43C120.77,25.94,121.09,27.69,121.74,29.2z"/>
	<path style="fill-rule:evenodd;clip-rule:evenodd;fill:#B02819;" d="M166.61,29.88c-1.2,1.47-2.81,2.19-4.84,2.19
		c-2.01,0-3.6-0.72-4.77-2.19c-1.17-1.46-1.76-3.45-1.76-5.97c0-2.54,0.59-4.54,1.76-6c1.17-1.46,2.76-2.2,4.77-2.2
		c2.03,0,3.64,0.74,4.84,2.2c1.19,1.46,1.79,3.46,1.79,6C168.4,26.43,167.8,28.42,166.61,29.88z M172.17,18.91
		c-0.56-1.49-1.33-2.77-2.32-3.81c-0.99-1.05-2.18-1.86-3.56-2.44c-1.39-0.58-2.9-0.88-4.52-0.88c-1.61,0-3.09,0.3-4.45,0.88
		c-1.37,0.58-2.55,1.39-3.54,2.44c-1,1.04-1.77,2.32-2.32,3.81c-0.56,1.49-0.82,3.16-0.82,4.98c0,1.83,0.26,3.49,0.82,4.96
		c0.55,1.48,1.32,2.75,2.32,3.82c0.99,1.06,2.17,1.88,3.54,2.46c1.36,0.58,2.84,0.87,4.45,0.87c1.62,0,3.13-0.29,4.52-0.87
		c1.38-0.58,2.57-1.4,3.56-2.46c0.99-1.07,1.76-2.34,2.32-3.82c0.55-1.47,0.83-3.13,0.83-4.96C173,22.07,172.72,20.4,172.17,18.91z"
		/>
</g>
</svg>
